<?xml version="1.0" encoding="utf-8"?>
<!-- Generator: Adobe Illustrator 18.1.0, SVG Export Plug-In . SVG Version: 6.00 Build 0)  -->
<svg version="1.1" id="Layer_1" xmlns="http://www.w3.org/2000/svg" xmlns:xlink="http://www.w3.org/1999/xlink" x="0px" y="0px"
	 viewBox="0 0 864 864" enable-background="new 0 0 864 864" xml:space="preserve">
<circle fill="none" stroke="#24455A" stroke-width="4.536" stroke-miterlimit="10" cx="465.6" cy="397" r="153.8"/>
<path fill="none" stroke="#24455A" stroke-width="9" stroke-linecap="round" stroke-miterlimit="10" d="M449.1,211.9
	c30.9-7.3,180.6-6.6,203.9,164.2"/>
<g>
	
		<line fill="none" stroke="#F6CC1F" stroke-width="2.232" stroke-linecap="round" stroke-miterlimit="10" x1="520.2" y1="343.6" x2="550.8" y2="324.2"/>
	
		<line fill="none" stroke="#F6CC1F" stroke-width="2.232" stroke-linecap="round" stroke-miterlimit="10" x1="463.5" y1="317.3" x2="463.4" y2="281.1"/>
	
		<line fill="none" stroke="#F6CC1F" stroke-width="2.232" stroke-linecap="round" stroke-miterlimit="10" x1="404" y1="343.6" x2="373.4" y2="324.2"/>
	
		<line fill="none" stroke="#F6CC1F" stroke-width="2.232" stroke-linecap="round" stroke-miterlimit="10" x1="563.9" y1="409.6" x2="528.4" y2="402.4"/>
	
		<line fill="none" stroke="#F6CC1F" stroke-width="2.232" stroke-linecap="round" stroke-miterlimit="10" x1="368.3" y1="412.3" x2="403.7" y2="405"/>
	<g>
		<g>
			<path fill="#F6CC1F" d="M516.6,382.9l-1.5-1.5c-0.2-0.3-0.5-0.6-0.8-0.8l-1.5-1.5h-18.6v-41.4h-1.4c-1.2-2-3.7-2.9-6-2.1
				c-1.1,0.4-2,1.2-2.6,2.1h-1.4v41.4h-34.3v-41.4h-1.4c-1.2-2-3.7-2.9-6-2.1c-1.1,0.4-2,1.1-2.5,2.1h-1.4v41.4h-18.6l-1.6,1.6
				c-0.3,0.2-0.6,0.5-0.8,0.8l-1.6,1.6v16.9l1.6,1.6c0.2,0.3,0.5,0.6,0.8,0.8l1.6,1.6h94.1l1.5-1.5c0.3-0.2,0.6-0.5,0.8-0.8l1.5-1.5
				L516.6,382.9L516.6,382.9z"/>
			<path fill="#F6CC1F" d="M501.8,408.6l-1.6-1.6h-71.3l-1.6,1.6c-0.3,0.2-0.6,0.5-0.8,0.8l-1.6,1.6v33.8l1.2,3l3,1.4
				c7.6,7,17.1,11.6,27.4,13.2l2.1,1v45.9h11.3v-45.8l1.9-0.9c10.6-1.5,20.4-6.2,28.3-13.4l2.8-1.3l1.1-2.7l0.1-34.2l-1.6-1.6
				C502.3,409.1,502.1,408.8,501.8,408.6z"/>
		</g>
	</g>
</g>
</svg>
