<?xml version="1.0" encoding="utf-8"?>
<!-- Generator: Adobe Illustrator 18.1.0, SVG Export Plug-In . SVG Version: 6.00 Build 0)  -->
<svg version="1.1" id="Layer_1" xmlns="http://www.w3.org/2000/svg" xmlns:xlink="http://www.w3.org/1999/xlink" x="0px" y="0px"
	 viewBox="0 0 864 864" enable-background="new 0 0 864 864" xml:space="preserve">
<circle fill="none" stroke="#24455A" stroke-width="4.536" stroke-miterlimit="10" cx="465.6" cy="397" r="153.8"/>
<path fill="none" stroke="#24455A" stroke-width="9" stroke-linecap="round" stroke-miterlimit="10" d="M610,293.2
	c21.4,23.5,93.4,154.8-44.8,257.9"/>
<g>
	<g>
		<g>
			<g>
				<g>
					<path fill="#F6CC1F" d="M473.1,499l-16.3-0.1c-2.6,0-4.8-2.1-4.8-4.8s2.1-4.8,4.7-4.8l14.7,0.1c0.2-0.5,0.3-1,0.4-1.3
						c0-0.3-0.2-0.8-0.4-1.2l-18.9,0c-5.9,0-8.2-7.6-8.2-10.8s2.4-10.8,8.2-10.8l21.6,0c0.2-0.5,0.3-1,0.4-1.3
						c0-0.3-0.2-0.8-0.4-1.2l-19.6,0c-5,0-9.1-4.1-9.1-9.2l0-1.9l-0.2-1.9c-1.8-9-6-16.9-12.6-23.4c-0.1-0.1-0.3-0.3-0.4-0.4
						c-16.2-16.4-16.5-35.9-15.9-43.5c0-0.1,0-0.1,0-0.2c1.2-25.7,22.2-46.4,47.9-47.4c0,0,0.4,0,0.4,0l0.8,0
						c25.8,0.9,46.8,21.7,48,47.4c0,0.1,0,0.1,0,0.2c0.6,7.7,0.3,27.2-16,43.5c-0.1,0.1-0.3,0.3-0.3,0.4c-3.4,3.4-6.2,7.2-8.3,11.4
						c-1.2,2.3-4.1,3.2-6.4,2c-2.3-1.2-3.3-4.1-2-6.4c2.5-4.9,5.9-9.5,9.9-13.5c0.1-0.1,0.2-0.3,0.3-0.4
						c13.2-13.2,13.9-29,13.4-35.7c0-0.2-0.1-0.4-0.1-0.6c-0.8-21-17.8-38-38.8-38.8l-0.5,0c-21,0.8-38,17.8-38.8,38.8
						c0,0.2,0,0.4-0.1,0.6c-0.4,6.7,0.2,22.5,13.4,35.7c0.1,0.1,0.3,0.3,0.4,0.4c7.8,7.9,12.8,17.4,15,28.3c0,0.1,0,0.3,0.1,0.4
						l0.3,2.4c0,0.2,0,0.3,0,0.5l0,1.9l1.3,0h19.5c5.9,0,8.3,7.6,8.3,10.8c0,3.2-2.4,10.8-8.2,10.8l-21.6,0c-0.2,0.5-0.3,1-0.4,1.3
						c0,0.3,0.2,0.8,0.4,1.2l18.8,0c5.9,0,8.3,7.6,8.3,10.8S478.9,499,473.1,499z"/>
				</g>
			</g>
		</g>
	</g>
	
		<line fill="none" stroke="#F6CC1F" stroke-width="2.232" stroke-linecap="round" stroke-miterlimit="10" x1="520.2" y1="343.6" x2="550.8" y2="324.2"/>
	
		<line fill="none" stroke="#F6CC1F" stroke-width="2.232" stroke-linecap="round" stroke-miterlimit="10" x1="463.5" y1="317.3" x2="463.4" y2="281.1"/>
	
		<line fill="none" stroke="#F6CC1F" stroke-width="2.232" stroke-linecap="round" stroke-miterlimit="10" x1="404" y1="343.6" x2="373.4" y2="324.2"/>
	
		<line fill="none" stroke="#F6CC1F" stroke-width="2.232" stroke-linecap="round" stroke-miterlimit="10" x1="563.9" y1="409.6" x2="528.4" y2="402.4"/>
	
		<line fill="none" stroke="#F6CC1F" stroke-width="2.232" stroke-linecap="round" stroke-miterlimit="10" x1="368.3" y1="412.3" x2="403.7" y2="405"/>
</g>
</svg>
