<?xml version="1.0" encoding="utf-8"?>
<!-- Generator: Adobe Illustrator 18.1.0, SVG Export Plug-In . SVG Version: 6.00 Build 0)  -->
<svg version="1.1" id="Layer_1" xmlns="http://www.w3.org/2000/svg" xmlns:xlink="http://www.w3.org/1999/xlink" x="0px" y="0px"
	 viewBox="0 0 375 666" enable-background="new 0 0 375 666" xml:space="preserve">
<g>
	<g>
		<g>
			<g>
				<path fill="#F6CC1F" d="M201.6,481.1l-27.5-0.1c-4.4,0-8.1-3.6-8.1-8.1c0-4.4,3.5-8.1,8-8.1l24.8,0.1c0.3-0.8,0.6-1.7,0.6-2.2
					c0-0.4-0.3-1.3-0.6-2.1l-32,0.1c-9.9,0-13.9-12.9-13.9-18.3c0-5.4,4-18.3,13.9-18.3l36.4,0c0.3-0.8,0.6-1.7,0.6-2.2
					c0-0.4-0.3-1.3-0.6-2.1l-33.2,0c-8.5,0-15.4-7-15.4-15.6l0-3.3l-0.4-3.3c-3.1-15.2-10.2-28.5-21.2-39.5
					c-0.2-0.2-0.4-0.5-0.6-0.7c-27.3-27.6-27.9-60.5-26.9-73.5c0-0.1,0-0.2,0-0.3c2.1-43.3,37.4-78.4,80.8-80c0,0,0.6,0,0.6,0l1.4,0
					c43.6,1.5,79,36.6,81.1,80c0,0.1,0,0.2,0,0.4c1,12.9,0.5,45.9-26.9,73.5c-0.2,0.2-0.4,0.5-0.6,0.6c-5.7,5.7-10.5,12.2-14.1,19.2
					c-2,4-6.9,5.5-10.9,3.5c-4-2-5.5-6.9-3.5-10.9c4.3-8.3,9.9-16,16.7-22.9c0.2-0.2,0.4-0.5,0.6-0.6c22.3-22.3,23.4-48.9,22.6-60.2
					c-0.1-0.3-0.1-0.7-0.1-1c-1.3-35.4-30.1-64.2-65.5-65.5l-0.8,0c-35.4,1.4-64.2,30.1-65.5,65.5c0,0.3,0,0.7-0.1,1
					c-0.7,11.3,0.3,37.9,22.6,60.3c0.2,0.2,0.4,0.5,0.6,0.7c13.2,13.3,21.7,29.4,25.3,47.7c0,0.2,0.1,0.4,0.1,0.7l0.5,4
					c0,0.3,0,0.6,0,0.9l0,3.2l2.2,0h33c10,0,14,12.9,14,18.3c0,5.4-4,18.3-13.9,18.3l-36.4-0.1c-0.3,0.8-0.6,1.7-0.6,2.2
					c0,0.4,0.3,1.3,0.6,2.1l31.8-0.1c10,0,14,12.9,14,18.3S211.5,481.1,201.6,481.1z"/>
			</g>
		</g>
	</g>
</g>
</svg>
